<svg xmlns="http://www.w3.org/2000/svg" width="95" height="92" viewBox="0 0 95 92">
    <g fill="none" fill-rule="evenodd">
        <path d="M-8-10h112v112H-8z"/>
        <path stroke="#17B38A" stroke-linecap="round" stroke-linejoin="round" stroke-width="2" d="M62.585 86.097H28.332A5.33 5.33 0 0 1 23 80.765V6.332A5.332 5.332 0 0 1 28.332 1h34.253a5.333 5.333 0 0 1 5.332 5.332v74.433a5.332 5.332 0 0 1-5.332 5.332z"/>
        <path stroke="#17B38A" stroke-linecap="round" stroke-linejoin="round" stroke-width="2" d="M34 1l2.814 3.694A4.608 4.608 0 0 0 40.125 6.1h11.217a4.593 4.593 0 0 0 3.446-1.557L57.236 1"/>
        <path fill="#FEFEFE" d="M85.281 79.038H62.925a5.33 5.33 0 0 1-5.332-5.331V49.46a5.33 5.33 0 0 1 5.332-5.33h22.356a5.331 5.331 0 0 1 5.332 5.33v24.247a5.332 5.332 0 0 1-5.332 5.331"/>
        <path stroke="#17B38A" stroke-linecap="round" stroke-linejoin="round" stroke-width="2" d="M85.281 79.038H62.925a5.33 5.33 0 0 1-5.332-5.331V49.46a5.33 5.33 0 0 1 5.332-5.33h22.356a5.331 5.331 0 0 1 5.332 5.33v24.247a5.332 5.332 0 0 1-5.332 5.331z"/>
        <path fill="#FEFEFE" d="M65.101 33.296h18.004l3.328 10.834h-24.66z"/>
        <path stroke="#17B38A" stroke-linecap="round" stroke-linejoin="round" stroke-width="2" d="M65.101 33.296h18.004l3.328 10.834h-24.66z"/>
        <path fill="#FEFEFE" d="M83.105 90.019H65.102l-3.329-10.834h24.661z"/>
        <path stroke="#17B38A" stroke-linecap="round" stroke-linejoin="round" stroke-width="2" d="M83.105 90.019H65.102l-3.329-10.834h24.661z"/>
        <path fill="#17B38A" d="M92.23 59.753h-.798a1.964 1.964 0 0 1-1.964-1.964v-3.862c0-1.087.879-1.964 1.964-1.964h.798c1.085 0 1.965.877 1.965 1.964v3.862c0 1.085-.88 1.964-1.965 1.964"/>
        <path fill="#F5726E" d="M77.857 64.597c-.017-1.998 1.652-2.968 1.73-3.016-.948-1.364-2.414-1.551-2.927-1.568-1.234-.128-2.429.732-3.056.732-.64 0-1.606-.718-2.648-.696-1.339.02-2.595.786-3.281 1.98-1.42 2.431-.362 6.004 1 7.972.677.961 1.473 2.034 2.512 1.998 1.02-.039 1.398-.64 2.626-.64 1.22 0 1.573.64 2.635.618 1.093-.017 1.782-.967 2.437-1.94A7.905 7.905 0 0 0 80 67.792c-.025-.008-2.12-.802-2.143-3.195zM79.577 51l.387.294c.2 1.607-.449 3.294-1.67 4.652-1.16 1.21-2.85 2.015-4.472 2.054l-.44-.009-.343-.287c-.22-1.515.518-3.258 1.712-4.497 1.066-1.11 2.828-1.974 4.37-2.17l.456-.037z"/>
        <path fill="#FEFEFE" d="M8.133 59.864h30.508a7.028 7.028 0 0 0 7.029-7.03v-25.12a7.029 7.029 0 0 0-7.03-7.032H8.134a7.032 7.032 0 0 0-7.03 7.032v25.12c0 3.882 3.149 7.03 7.03 7.03"/>
        <path stroke="#17B38A" stroke-linecap="round" stroke-linejoin="round" stroke-width="2" d="M8.133 59.864h30.508a7.028 7.028 0 0 0 7.029-7.03v-25.12a7.029 7.029 0 0 0-7.03-7.032H8.134a7.032 7.032 0 0 0-7.03 7.032v25.12c0 3.882 3.149 7.03 7.03 7.03z"/>
        <path stroke="#17B38A" stroke-linecap="round" stroke-linejoin="round" stroke-width="2" d="M18.67 51.096l3.048-3.045c3.315 1.09 7.115.333 9.748-2.302 2.982-2.982 3.574-7.442 1.79-11.018l-7.079 7.077-4.276-4.276 7.077-7.074c-3.576-1.786-8.035-1.197-11.015 1.785a9.54 9.54 0 0 0-2.345 9.64l.052.118-3.157 3.156"/>
        <path stroke="#F5726E" stroke-linecap="round" stroke-linejoin="round" stroke-width="4" d="M40 77.5h11.246"/>
    </g>
</svg>
