<svg xmlns="http://www.w3.org/2000/svg" width="92" height="90" viewBox="0 0 92 90">
    <g fill="none" fill-rule="evenodd">
        <path d="M-10-11h112v112H-10z"/>
        <path stroke="#17B38A" stroke-width="2" d="M83.242 12.188H8.746v75.364c0 .706.57 1.277 1.276 1.277h71.943c.706 0 1.277-.571 1.277-1.277V12.188z"/>
        <path fill="#FEFEFE" d="M5.113 25.15a4.06 4.06 0 0 1-4.06-4.06V5.11a4.06 4.06 0 0 1 4.06-4.057h81.763a4.06 4.06 0 0 1 4.058 4.058v15.978a4.06 4.06 0 0 1-4.058 4.06H5.113z"/>
        <path stroke="#17B38A" stroke-width="2" d="M86.876 25.15H5.113a4.06 4.06 0 0 1-4.06-4.06V5.11a4.06 4.06 0 0 1 4.06-4.057h81.763a4.06 4.06 0 0 1 4.058 4.058v15.978a4.06 4.06 0 0 1-4.058 4.06z"/>
        <path fill="#F5726E" stroke="#F5726E" stroke-width="2" d="M52.36 14.446a1.13 1.13 0 1 1 .002-2.259 1.13 1.13 0 0 1-.002 2.259zM58.168 14.446a1.13 1.13 0 1 1 .003-2.259 1.13 1.13 0 0 1-.003 2.259zM63.979 14.446a1.13 1.13 0 1 1-.001-2.26 1.13 1.13 0 0 1 0 2.26z"/>
        <path stroke="#F5726E" stroke-width="4" d="M78.876 13.316a3.657 3.657 0 1 1-7.315.003 3.657 3.657 0 0 1 7.315-.003z"/>
        <path fill="#FEFEFE" d="M5.113 54.677a4.06 4.06 0 0 1-4.06-4.058V34.64a4.06 4.06 0 0 1 4.06-4.06h81.763a4.06 4.06 0 0 1 4.058 4.06V50.62a4.06 4.06 0 0 1-4.058 4.058H5.113z"/>
        <path stroke="#17B38A" stroke-width="2" d="M86.876 54.677H5.113a4.06 4.06 0 0 1-4.06-4.058V34.64a4.06 4.06 0 0 1 4.06-4.06h81.763a4.06 4.06 0 0 1 4.058 4.06V50.62a4.06 4.06 0 0 1-4.058 4.058z"/>
        <path fill="#17B38A" d="M52.36 43.973a1.129 1.129 0 1 1 .001-2.258 1.129 1.129 0 0 1-.001 2.258zM58.168 43.973a1.129 1.129 0 1 1 .002-2.258 1.129 1.129 0 0 1-.002 2.258zM63.979 43.973a1.13 1.13 0 1 1-.002-2.259 1.13 1.13 0 0 1 .002 2.259z"/>
        <path stroke="#17B38A" stroke-width="2" d="M78.876 42.845a3.658 3.658 0 1 1-7.316-.004 3.658 3.658 0 0 1 7.316.004z"/>
        <path fill="#FEFEFE" d="M5.113 84.204a4.06 4.06 0 0 1-4.06-4.058V64.167a4.06 4.06 0 0 1 4.06-4.06h81.763a4.06 4.06 0 0 1 4.058 4.06v15.979a4.06 4.06 0 0 1-4.058 4.058H5.113z"/>
        <path stroke="#17B38A" stroke-width="2" d="M86.876 84.204H5.113a4.06 4.06 0 0 1-4.06-4.058V64.167a4.06 4.06 0 0 1 4.06-4.06h81.763a4.06 4.06 0 0 1 4.058 4.06v15.979a4.06 4.06 0 0 1-4.058 4.058z"/>
        <path fill="#F5726E" stroke="#F5726E" stroke-width="2" d="M52.36 73.502a1.13 1.13 0 0 1 0-2.26 1.131 1.131 0 0 1 0 2.26zM58.168 73.502a1.13 1.13 0 0 1 0-2.26 1.131 1.131 0 0 1 0 2.26zM63.979 73.502a1.131 1.131 0 0 1 0-2.26 1.13 1.13 0 0 1 0 2.26z"/>
        <path stroke="#F5726E" stroke-width="4" d="M78.876 72.372a3.658 3.658 0 1 1-7.312 0 3.658 3.658 0 0 1 7.312 0z"/>
        <path stroke="#17B38A" stroke-linecap="round" stroke-linejoin="round" stroke-width="2" d="M12.38 9.66v7.314M18.977 9.66v7.314M25.575 9.66v7.314M32.173 9.66v7.314"/>
        <path stroke="#F5726E" stroke-linecap="round" stroke-linejoin="round" stroke-width="4" d="M12.38 39.187v7.314M18.977 39.187v7.314M25.575 39.187v7.314M32.173 39.187v7.314"/>
        <path stroke="#17B38A" stroke-linecap="round" stroke-linejoin="round" stroke-width="2.4" d="M12.38 68.714v7.316M18.977 68.714v7.316M25.575 68.714v7.316M32.173 68.714v7.316"/>
    </g>
</svg>
