<svg xmlns="http://www.w3.org/2000/svg" width="100" height="86" viewBox="0 0 100 86">
    <g fill="none" fill-rule="evenodd">
        <path d="M-6-13h112V99H-6z"/>
        <path stroke="#17B38A" stroke-linecap="round" stroke-linejoin="round" stroke-width="2" d="M89.443 68.663h-79.29V25.58a5.19 5.19 0 0 1 5.19-5.19h68.923a5.175 5.175 0 0 1 5.177 5.174v43.1zM93.82 84.719H6.473a4.492 4.492 0 0 1-4.492-4.493v-1.841h96.33v1.841a4.492 4.492 0 0 1-4.491 4.493zM1.98 78.385l8.173-9.722M98.313 78.385l-8.871-9.722M10.153 30.212h79.29M47.099 25.586h6.094"/>
        <path fill="#FEFEFE" d="M35.337 39.49h29.619a6.826 6.826 0 0 0 6.826-6.827V8.274a6.826 6.826 0 0 0-6.826-6.827h-29.62a6.827 6.827 0 0 0-6.826 6.827v24.39a6.827 6.827 0 0 0 6.827 6.826"/>
        <path stroke="#17B38A" stroke-linecap="round" stroke-linejoin="round" stroke-width="2" d="M35.337 39.49h29.619a6.826 6.826 0 0 0 6.826-6.827V8.274a6.826 6.826 0 0 0-6.826-6.827h-29.62a6.827 6.827 0 0 0-6.826 6.827v24.39a6.827 6.827 0 0 0 6.827 6.826z"/>
        <path stroke="#17B38A" stroke-linecap="round" stroke-linejoin="round" stroke-width="2" d="M45.568 30.976l2.959-2.957c3.218 1.06 6.905.323 9.464-2.235 2.895-2.893 3.47-7.223 1.736-10.695l-6.87 6.871-4.152-4.151 6.87-6.87c-3.471-1.735-7.8-1.16-10.694 1.733a9.26 9.26 0 0 0-2.277 9.358l.049.117-3.063 3.062"/>
        <path stroke="#F5726E" stroke-linecap="round" stroke-linejoin="round" stroke-width="4" d="M80 73.525h5M69 73.525h5M15 73.525h4M25 73.525h5M36 73.525h5M47 73.525h5"/>
    </g>
</svg>
