<svg xmlns="http://www.w3.org/2000/svg" width="94" height="102" viewBox="0 0 94 102">
    <g fill="none" fill-rule="evenodd">
        <path d="M-9 2h112v112H-9z"/>
        <g stroke-linecap="round" stroke-linejoin="round">
            <path stroke="#17B38A" stroke-width="2" d="M34.746 100.283l3.18-14.522M58.491 100.283l-3.178-14.522M62.08 25.63h25.06a5.034 5.034 0 0 1 5.035 5.036v50.059a5.035 5.035 0 0 1-5.035 5.035H6.036A5.035 5.035 0 0 1 1 80.725v-50.06a5.034 5.034 0 0 1 5.036-5.035h25.121M1.101 75.447h90.973M27.76 100.376h37.655M43.624 80.296h5.928M27.791 100.376h37.656"/>
            <path stroke="#F5726E" stroke-width="4" d="M43.655 80.7h5.928M38.985 2.1v35.73c0 .543-.44.981-.982.981h-5.86a.984.984 0 0 0-.765 1.601L46.36 58.98a.984.984 0 0 0 1.545-.02l13.97-18.194a.983.983 0 0 0-.78-1.581h-5.923a.984.984 0 0 1-.982-.985V21.383M46.587 8.532v18.541"/>
        </g>
    </g>
</svg>
